<?xml version="1.0" encoding="utf-8"?>
<!-- Generator: Adobe Illustrator 16.0.0, SVG Export Plug-In . SVG Version: 6.00 Build 0)  -->
<!DOCTYPE svg PUBLIC "-//W3C//DTD SVG 1.1//EN" "http://www.w3.org/Graphics/SVG/1.1/DTD/svg11.dtd">
<svg version="1.1" id="Layer_1" xmlns="http://www.w3.org/2000/svg" xmlns:xlink="http://www.w3.org/1999/xlink" x="0px" y="0px"
	 width="720px" height="450px" viewBox="279.438 131.063 720 450" enable-background="new 279.438 131.063 720 450"
	 xml:space="preserve">
<g>
	<g>
		<g>
			<defs>
				<path id="SVGID_1_" d="M279.438,164.813c0-18.563,15.188-33.75,33.75-33.75h652.5c18.563,0,33.75,15.188,33.75,33.75v382.5
					c0,18.563-15.188,33.75-33.75,33.75h-652.5c-18.563,0-33.75-15.188-33.75-33.75V164.813L279.438,164.813z"/>
			</defs>
			<clipPath id="SVGID_2_">
				<use xlink:href="#SVGID_1_"  overflow="visible"/>
			</clipPath>
			<path clip-path="url(#SVGID_2_)" fill="#246EA9" d="M279.438,164.813c0-18.563,15.188-33.75,33.75-33.75h652.5
				c18.563,0,33.75,15.188,33.75,33.75v382.5c0,18.563-15.188,33.75-33.75,33.75h-652.5c-18.563,0-33.75-15.188-33.75-33.75V164.813
				L279.438,164.813z"/>
		</g>
	</g>
</g>
<g>
	<g>
		<defs>
			<path id="SVGID_3_" d="M991.563,408.375h-36c-3.375,0-6.188,0-7.875,1.688c-2.25,1.125-2.813,3.375-2.813,6.188
				c0,3.375,1.688,5.063,4.5,6.188c2.25,0.563,4.5,1.125,7.313,1.125h10.688c10.688,0.563,18,2.25,22.5,6.75
				c0.563,0.563,1.125,1.125,1.688,2.25V408.375L991.563,408.375z M991.563,462.938c-5.063,7.313-14.063,10.688-27,10.688h-38.25
				v-18h38.25c3.938,0,6.188-0.563,7.875-2.25c1.125-1.125,2.25-2.813,2.25-5.625c0-2.25-1.125-4.5-2.25-5.625
				c-1.688-1.125-3.375-1.688-6.75-1.688c-18.563-0.563-41.625,0.563-41.625-25.875c0-11.813,7.875-24.75,28.125-24.75h39.375V373.5
				H955c-11.25,0-19.125,2.813-24.75,6.75v-6.75h-54c-8.438,0-18.563,2.25-23.625,6.75v-6.75h-96.75v6.75
				c-7.875-5.625-20.813-6.75-26.438-6.75h-64.125v6.75c-6.188-5.625-19.688-6.75-28.125-6.75h-70.875L550,392.063l-15.188-17.438
				H427.938v115.313h104.625l16.875-18l15.75,18h64.688v-27h6.188c8.438,0,18.563,0,27.563-3.938v30.938h53.438v-29.813h2.813
				c3.375,0,3.375,0,3.375,3.375v26.438h161.438c10.125,0,20.813-2.813,27-7.313v7.313h51.188c10.688,0,20.813-1.688,29.25-5.063
				v-21.938H991.563z M912.25,429.75c3.938,3.938,6.188,9,6.188,17.438c0,18-11.25,25.875-30.938,25.875h-38.813v-17.438h38.25
				c3.938,0,6.188-0.563,7.875-2.25c1.125-1.125,2.25-2.813,2.25-5.625c0-2.25-1.125-4.5-2.25-5.625
				c-1.688-1.125-3.375-1.688-7.313-1.688c-18.563-0.563-41.625,0.563-41.625-25.875c0-11.813,7.313-24.75,28.125-24.75h39.375
				v17.438h-36c-3.938,0-6.188,0-7.875,1.688c-2.25,1.125-2.813,3.375-2.813,6.188c0,3.375,1.688,5.063,4.5,6.188
				c2.25,0.563,4.5,1.125,7.875,1.125h10.688C901,423.563,907.75,425.25,912.25,429.75z M733.938,424.688
				c-2.813,1.688-6.188,1.688-9.563,1.688h-24.188v-18.563h24.188c3.375,0,7.313,0,9.563,1.688c2.813,1.125,3.938,3.938,3.938,7.313
				C738.438,420.188,736.75,423,733.938,424.688z M746.313,434.813c4.5,1.688,7.875,4.5,9.563,6.75
				c2.813,3.938,3.375,7.875,3.375,15.188v16.313h-19.688v-10.125c0-5.063,0.563-12.375-3.375-16.313
				c-2.813-2.813-7.313-3.938-14.625-3.938h-21.375v30.375H680.5v-82.125h45.563c10.125,0,17.438,0.563,23.625,3.938
				c6.188,3.938,10.125,9,10.125,18.563C759.813,426.375,751.375,433.125,746.313,434.813z M771.063,390.938h65.813v17.438H790.75
				v15.188h45v16.875h-45v16.313h46.125v17.438h-65.813V390.938z M637.75,429.188h-25.875v-20.813h25.875
				c7.313,0,11.813,2.813,11.813,10.125C650.125,425.25,645.063,429.188,637.75,429.188z M592.188,466.313l-30.375-33.75
				l30.375-32.625V466.313z M514,456.188h-48.375v-16.313h43.313V423h-43.313v-15.188h49.5L536.5,432L514,456.188z M670.938,417.938
				c0,23.063-16.875,27.563-34.313,27.563h-24.75v27.563h-38.25L549.438,445.5l-25.313,27.563h-78.188v-82.125h79.313l24.188,27
				l25.313-27h63C653.5,390.938,670.938,395.438,670.938,417.938z"/>
		</defs>
		<clipPath id="SVGID_4_">
			<use xlink:href="#SVGID_3_"  overflow="visible"/>
		</clipPath>
		<rect x="399.813" y="346.5" clip-path="url(#SVGID_4_)" fill="#FFFFFE" width="619.875" height="171.563"/>
	</g>
</g>
<g>
	<g>
		<g>
			<defs>
				<path id="SVGID_5_" d="M351.438,295.313l-13.5-33.188l-13.5,33.188H351.438z M649.563,282.375
					c-2.813,1.688-6.188,1.688-9.563,1.688h-24.188V265.5H640c3.375,0,7.313,0,9.563,1.688c2.813,1.125,3.938,3.938,3.938,7.313
					C653.5,278.438,651.813,281.25,649.563,282.375z M821.125,295.313l-13.5-33.188l-13.5,33.188H821.125z M501.625,331.313h-20.25
					v-64.688l-28.688,64.688H435.25l-28.688-64.688v64.688h-39.938l-7.875-18.563h-41.063l-7.875,18.563h-21.375l35.438-82.688
					h29.25l33.75,78.188v-78.188h32.063l25.875,56.25l23.625-56.25h32.625v82.688H501.625z M582.063,331.313H516.25v-82.688h65.813
					v17.438h-46.125v14.625h45v16.875h-45v16.313h46.125V331.313z M675.438,270.563c0,12.938-9,20.25-14.063,21.938
					c4.5,1.688,7.875,4.5,9.563,6.75c2.813,3.938,3.375,7.875,3.375,15.188v16.313h-19.688v-10.688
					c0-5.063,0.563-12.375-3.375-16.313c-2.813-2.813-7.313-3.375-14.625-3.375H615.25v29.813h-19.688v-81.563h45.563
					c10.125,0,17.438,0.563,24.188,3.938C671.5,255.938,675.438,261.563,675.438,270.563z M686.688,331.313h20.25v-82.688h-20.25
					V331.313z M940.938,331.313h-28.125l-37.688-61.875v61.875h-40.5l-7.875-18.563h-40.5l-7.313,18.563h-23.063
					c-9.563,0-21.938-2.25-28.688-9C720.438,315,716.5,306,716.5,290.813c0-12.375,2.25-23.625,10.688-32.063
					c6.188-6.75,16.313-9.563,29.813-9.563h19.125v17.438h-18.563c-7.313,0-11.25,1.125-15.188,5.063
					c-3.375,3.375-5.625,10.125-5.625,18.563c0,9,1.688,15.188,5.625,19.688c2.813,3.375,8.438,4.5,13.5,4.5h9L793,249.188h29.813
					L856,327.375v-78.75h30.375L921.25,306v-57.375h20.25v82.688H940.938z M287.875,347.625h33.75l7.875-18.563h16.875l7.313,18.563
					h66.938v-14.063l6.188,14.063h34.313l5.625-14.063v14.063h165.375V317.25h3.375c2.25,0,2.813,0.563,2.813,3.938v26.438h85.5
					v-7.313c6.75,3.938,17.438,7.313,31.5,7.313h36l7.875-18.563h16.875l7.313,18.563h69.188v-17.438l10.688,17.438h55.688V232.313
					h-55.125v13.5l-7.875-13.5h-56.25v13.5l-7.313-13.5h-75.938c-12.938,0-24.188,1.688-33.188,6.75v-6.75h-52.313v6.75
					c-5.625-5.063-13.5-6.75-22.5-6.75H456.625l-12.938,29.813l-12.938-29.813H370v13.5l-6.75-13.5H311.5l-23.625,54.563V347.625z"
					/>
			</defs>
			<clipPath id="SVGID_6_">
				<use xlink:href="#SVGID_5_"  overflow="visible"/>
			</clipPath>
			<rect x="259.75" y="204.188" clip-path="url(#SVGID_6_)" fill="#FFFFFE" width="726.75" height="171.563"/>
		</g>
	</g>
	<rect x="686.688" y="248.625" fill="#246EA9" width="20.25" height="82.688"/>
</g>
</svg>
