<?xml version="1.0" encoding="utf-8"?>
<!-- Generator: Adobe Illustrator 16.0.0, SVG Export Plug-In . SVG Version: 6.00 Build 0)  -->
<!DOCTYPE svg PUBLIC "-//W3C//DTD SVG 1.1//EN" "http://www.w3.org/Graphics/SVG/1.1/DTD/svg11.dtd">
<svg version="1.1" id="svg11533" xmlns:svg="http://www.w3.org/2000/svg"
	 xmlns="http://www.w3.org/2000/svg" xmlns:xlink="http://www.w3.org/1999/xlink" x="0px" y="0px" width="581.406px"
	 height="359.949px" viewBox="187.644 35.507 581.406 359.949" enable-background="new 187.644 35.507 581.406 359.949"
	 xml:space="preserve">
<g id="g3235" transform="translate(186.36143,150.74335)">
	<path id="path5458" fill="#1B458E" d="M416.813-115.237c98.184,0,165.875,83.728,165.875,180.411
		c0,97.065-70.992,179.401-165.902,179.538H182.511C90.11,244.74,1.446,162.239,1.282,65.065
		C1.446-29.79,90.11-115.237,182.456-115.237H416.813"/>
	<path id="path5462" fill="none" d="M416.813-115.237c98.184,0,165.875,83.728,165.875,180.411
		c0,97.065-70.992,179.401-165.902,179.538H182.511C90.11,244.74,1.446,162.239,1.282,65.065
		C1.446-29.79,90.11-115.237,182.456-115.237H416.813z"/>
	<path id="path5466" fill="#FFFFFF" d="M357.522,64.82c0.027,90.492-86.046,174.82-175.065,174.793
		C91.937,239.284,6.573,154.93,6.546,65.174c0.027-88.773,85.392-175.666,175.911-175.747
		C271.475-110.491,357.549-26.027,357.522,64.82"/>
	<path id="path5470" fill="none" d="M357.522,64.82c0.027,90.492-86.046,174.82-175.065,174.793
		C91.937,239.284,6.573,154.93,6.546,65.174c0.027-88.773,85.392-175.666,175.911-175.747
		C271.475-110.491,357.549-26.027,357.522,64.82z"/>
	<path id="path5474" fill="#1B458E" d="M289.448,64.71c0.055,50.237-36,94.61-72.41,101.837V-37.427
		C253.448-27.609,289.503,13.628,289.448,64.71"/>
	<path id="path5478" fill="none" d="M289.448,64.71c0.055,50.237-36,94.61-72.41,101.837V-37.427
		C253.448-27.609,289.503,13.628,289.448,64.71z"/>
	<path id="path5482" fill="#1B458E" d="M74.865,64.601c-0.027-50.237,36.027-94.61,72.41-101.837v204.002
		C110.892,156.921,74.837,115.683,74.865,64.601"/>
	<path id="path5486" fill="none" d="M74.865,64.601c-0.027-50.237,36.027-94.61,72.41-101.837v204.002
		C110.892,156.921,74.837,115.683,74.865,64.601z"/>
</g>
</svg>
