<?xml version="1.0" encoding="utf-8"?>
<!-- Generator: Adobe Illustrator 16.0.0, SVG Export Plug-In . SVG Version: 6.00 Build 0)  -->
<!DOCTYPE svg PUBLIC "-//W3C//DTD SVG 1.1//EN" "http://www.w3.org/Graphics/SVG/1.1/DTD/svg11.dtd">
<svg version="1.1" id="svg" xmlns="http://www.w3.org/2000/svg" xmlns:xlink="http://www.w3.org/1999/xlink" x="0px" y="0px"
	 width="1230.388px" height="396.899px" viewBox="24.806 161.55 1230.388 396.899"
	 enable-background="new 24.806 161.55 1230.388 396.899" xml:space="preserve">
<path fill="#FFFFFF" d="M277.83,482.047h57.55v-167.69h-57.55V482.047z M355.225,200.248h-38.697v38.698h38.697V200.248z
	 M137.922,219.101H82.356v48.62h51.597c32.744,0,51.597,15.876,51.597,45.644S166.698,360,133.954,360H82.356v-91.287h-57.55
	v213.333h57.55V408.62h54.574c66.48,0,105.178-35.721,105.178-97.24C242.108,253.83,204.403,219.101,137.922,219.101z
	 M393.922,161.55H277.83v116.093h116.093V161.55z M375.07,257.798h-77.396v-77.395h77.396V257.798z M712.435,219.101h-52.59v48.62
	h49.612c32.744,0,51.598,15.876,51.598,45.644S742.201,360,709.457,360h-49.612v-91.287h-57.55v213.333h57.55V408.62h52.59
	c66.48,0,105.178-35.721,105.178-97.24C817.612,253.83,778.915,219.101,712.435,219.101z M1195.659,280.62l-49.612,125.023
	l-49.612-125.023h-59.535l79.38,201.427l-30.76,76.402h60.527l109.147-277.829H1195.659z M937.675,279.628
	c-34.729,0-61.52,7.938-91.287,22.821l17.86,39.69c20.837-11.907,41.675-17.86,60.527-17.86c27.783,0,41.674,11.907,41.674,33.736
	v3.969h-55.565c-49.612,0-76.403,22.822-76.403,60.527c0,36.713,25.799,62.512,69.458,62.512c27.782,0,47.627-9.923,63.504-26.791
	v21.83H1024V349.085C1022.016,306.419,991.256,279.628,937.675,279.628z M971.411,414.573c-5.954,16.868-22.822,30.76-46.636,30.76
	c-19.845,0-31.752-9.922-31.752-25.798s10.915-22.822,32.744-22.822h45.644V414.573z M482.232,438.388
	c-27.783,0-47.628-21.829-47.628-54.573c0-31.752,19.845-53.582,47.628-53.582c19.845,0,34.729,7.938,45.644,21.83l38.697-27.783
	c-17.86-26.791-48.62-42.667-87.317-42.667c-60.527-0.992-102.202,40.683-102.202,102.202c0,61.519,41.674,102.201,102.202,102.201
	c41.675,0,72.434-16.868,89.302-44.651l-39.689-26.791C518.945,430.449,503.069,438.388,482.232,438.388z"/>
</svg>
