<?xml version="1.0" encoding="utf-8"?>
<!-- Generator: Adobe Illustrator 16.0.0, SVG Export Plug-In . SVG Version: 6.00 Build 0)  -->
<!DOCTYPE svg PUBLIC "-//W3C//DTD SVG 1.1//EN" "http://www.w3.org/Graphics/SVG/1.1/DTD/svg11.dtd">
<svg version="1.1"
	 id="Layer_1" xmlns:dc="http://purl.org/dc/elements/1.1/" xmlns:cc="http://creativecommons.org/ns#" xmlns:rdf="http://www.w3.org/1999/02/22-rdf-syntax-ns#"
	 xmlns="http://www.w3.org/2000/svg" xmlns:xlink="http://www.w3.org/1999/xlink" x="0px" y="0px" width="199.939px"
	 height="123.618px" viewBox="0.076 -0.052 199.939 123.618" enable-background="new 0.076 -0.052 199.939 123.618"
	 xml:space="preserve">
<g transform="translate(1565.7 -1106.8)">
	<g transform="matrix(3.1437 0 0 3.1437 -4835.7 -1027.6)">
		<path fill="#FF5F00" d="M1080.6,714.05h-17.202v-30.915h17.202V714.05z"/>
		<g transform="matrix(1.25 0 0 -1.25 1064.5 698.59)">
			<path fill="#EB001B" d="M0,0c0,5.017,2.349,9.486,6.007,12.366c-2.675,2.106-6.051,3.363-9.72,3.363
				C-12.399,15.729-19.44,8.687-19.44,0s7.041-15.729,15.727-15.729c3.669,0,7.045,1.257,9.72,3.363C2.349-9.486,0-5.017,0,0"/>
		</g>
		<g transform="matrix(1.25 0 0 -1.25 1103.8 698.59)">
			<path fill="#F79E1B" d="M0,0c0-8.687-7.041-15.729-15.727-15.729c-3.669,0-7.045,1.257-9.721,3.363
				C-21.789-9.486-19.44-5.017-19.44,0c0,5.017-2.349,9.486-6.008,12.366c2.676,2.106,6.052,3.363,9.721,3.363
				C-7.041,15.729,0,8.687,0,0"/>
		</g>
	</g>
</g>
</svg>
