<?xml version="1.0" encoding="utf-8"?>
<!-- Generator: Adobe Illustrator 16.0.0, SVG Export Plug-In . SVG Version: 6.00 Build 0)  -->
<!DOCTYPE svg PUBLIC "-//W3C//DTD SVG 1.1//EN" "http://www.w3.org/Graphics/SVG/1.1/DTD/svg11.dtd">
<svg version="1.1" id="Camada_1" xmlns="http://www.w3.org/2000/svg" xmlns:xlink="http://www.w3.org/1999/xlink" x="0px" y="0px"
	 width="257.73px" height="129.925px" viewBox="0 0 257.73 129.925" enable-background="new 0 0 257.73 129.925"
	 xml:space="preserve">
<g>
	<g>
		<path fill-rule="evenodd" clip-rule="evenodd" fill="#FFFFFF" d="M53.582,22.679c25.257,0,46.429,17.477,52.092,40.996
			l-21.597,9.443l-0.005-0.045L61.979,82.78L8.977,105.954C3.307,97.454,0,87.244,0,76.261C0,46.668,23.989,22.679,53.582,22.679
			L53.582,22.679z M76.581,55.995L23.055,79.061c-0.083-0.923-0.128-1.855-0.128-2.8c0-16.931,13.725-30.655,30.655-30.655
			C62.743,45.605,70.963,49.625,76.581,55.995L76.581,55.995z"/>
		<path fill-rule="evenodd" clip-rule="evenodd" fill="#FFFFFF" d="M91.023,114.59c-19.185,18.209-44.565,19.996-66.866,6.457
			l12.601-19.156c12.689,7.585,25.438,6.354,38.244-3.7L91.023,114.59L91.023,114.59z"/>
		<path fill-rule="evenodd" clip-rule="evenodd" fill="#FFFFFF" d="M112.841,101.327L112.705,0h19.197v98.591
			c0,0.946,0.117,1.779,1.358,2.262l16.7,6.494l-7.524,19.563l-19.563-8.277C115.455,115.494,112.854,110.946,112.841,101.327
			L112.841,101.327z"/>
	</g>
	<g>
		<path fill-rule="evenodd" clip-rule="evenodd" fill="#009DD7" d="M185.123,99.623c-7.195-5.595-11.829-14.327-11.829-24.147
			c0-8.731,3.665-16.602,9.533-22.173l-12.398-20.095c-12.464,9.875-20.468,25.132-20.468,42.269
			c0,18.47,9.292,34.765,23.452,44.479L185.123,99.623z"/>
		<path fill-rule="evenodd" clip-rule="evenodd" fill="#FFF200" d="M193.528,46.694c3.231-1.162,6.714-1.798,10.346-1.798
			c13.094,0,24.259,8.232,28.619,19.8l23.759-1.985c-5.734-23.611-27.002-41.147-52.378-41.147c-7.17,0-14.007,1.412-20.265,3.952
			L193.528,46.694z"/>
		<path fill-rule="evenodd" clip-rule="evenodd" fill="#E33206" d="M234.416,76.957c-0.773,16.2-14.15,29.098-30.542,29.098
			c-2.569,0-5.063-0.321-7.446-0.918l-9.32,21.579c5.279,1.726,10.911,2.672,16.767,2.672c29.032,0,52.692-22.95,53.856-51.696
			L234.416,76.957z"/>
	</g>
</g>
</svg>
