<?xml version="1.0" encoding="utf-8"?>
<!-- Generator: Adobe Illustrator 16.0.0, SVG Export Plug-In . SVG Version: 6.00 Build 0)  -->
<!DOCTYPE svg PUBLIC "-//W3C//DTD SVG 1.1//EN" "http://www.w3.org/Graphics/SVG/1.1/DTD/svg11.dtd">
<svg version="1.1"
	 id="Layer_1" xmlns:dc="http://purl.org/dc/elements/1.1/" xmlns:cc="http://creativecommons.org/ns#" xmlns:rdf="http://www.w3.org/1999/02/22-rdf-syntax-ns#" xmlns:svg="http://www.w3.org/2000/svg" xmlns:sodipodi="http://sodipodi.sourceforge.net/DTD/sodipodi-0.dtd" xmlns:inkscape="http://www.inkscape.org/namespaces/inkscape" sodipodi:docname="Visa_2006.svg" inkscape:version="0.91 r13725"
	 xmlns="http://www.w3.org/2000/svg" xmlns:xlink="http://www.w3.org/1999/xlink" x="0px" y="0px" width="1000.046px"
	 height="323.653px" viewBox="0 0 1000.046 323.653" enable-background="new 0 0 1000.046 323.653" xml:space="preserve">
<sodipodi:namedview  id="namedview19" guidetolerance="10" borderopacity="1" inkscape:cx="34.690897" inkscape:cy="131.15483" bordercolor="#666666" showgrid="false" objecttolerance="10" inkscape:zoom="0.35355339" pagecolor="#ffffff" gridtolerance="10" inkscape:window-maximized="1" inkscape:current-layer="Layer_1" inkscape:window-y="-8" inkscape:window-x="-8" inkscape:window-height="705" inkscape:window-width="1366" inkscape:pageshadow="2" inkscape:pageopacity="0">
	</sodipodi:namedview>
<g id="g4158" transform="matrix(4.4299631,0,0,4.4299631,-81.165783,-105.04783)">
	<polygon id="polygon9" fill="#FFFFFF" points="116.145,95.719 97.858,95.719 109.296,24.995 127.582,24.995 	"/>
	<path id="path11" inkscape:connector-curvature="0" fill="#FFFFFF" d="M182.437,26.724c-3.607-1.431-9.328-3.011-16.402-3.011
		c-18.059,0-30.776,9.63-30.854,23.398c-0.15,10.158,9.105,15.8,16.027,19.187c7.075,3.461,9.48,5.72,9.48,8.805
		c-0.072,4.738-5.717,6.922-10.982,6.922c-7.301,0-11.213-1.126-17.158-3.762l-2.408-1.13l-2.559,15.876
		c4.289,1.954,12.191,3.688,20.395,3.764c19.188,0,31.68-9.481,31.828-24.153c0.073-8.051-4.814-14.22-15.35-19.261
		c-6.396-3.236-10.313-5.418-10.313-8.729c0.075-3.01,3.313-6.093,10.533-6.093c5.945-0.151,10.313,1.278,13.622,2.708l1.654,0.751
		L182.437,26.724L182.437,26.724z"/>
	<path id="path13" inkscape:connector-curvature="0" fill="#FFFFFF" d="M206.742,70.664c1.506-4.063,7.301-19.788,7.301-19.788
		c-0.076,0.151,1.503-4.138,2.406-6.771l1.278,6.094c0,0,3.463,16.929,4.215,20.465C219.084,70.664,210.354,70.664,206.742,70.664
		L206.742,70.664z M229.315,24.995H215.17c-4.362,0-7.676,1.278-9.558,5.868l-27.163,64.855h19.188c0,0,3.159-8.729,3.838-10.609
		c2.105,0,20.771,0,23.479,0c0.525,2.483,2.182,10.609,2.182,10.609h16.932L229.315,24.995L229.315,24.995L229.315,24.995z"/>
	<path id="path15" inkscape:connector-curvature="0" fill="#FFFFFF" d="M82.584,24.995L64.675,73.222l-1.957-9.781
		c-3.311-11.286-13.695-23.548-25.283-29.645l16.404,61.848h19.338l28.744-70.649H82.584L82.584,24.995L82.584,24.995z"/>
	<path id="path17" inkscape:connector-curvature="0" fill="#FAA61A" d="M48.045,24.995H18.623l-0.301,1.429
		c22.951,5.869,38.151,20.016,44.396,37.02L56.322,30.94C55.269,26.423,52.033,25.144,48.045,24.995L48.045,24.995z"/>
</g>
</svg>
